<svg width="265" height="250" viewBox="0 0 265 250" fill="none" xmlns="http://www.w3.org/2000/svg">
<g clip-path="url(#clip0_597_6317)">
<path fill-rule="evenodd" clip-rule="evenodd" d="M69.6982 85.476L62.7562 86.8639L59.8868 93.7114L56.4621 87.1415L49.335 86.4013L54.2407 80.9418L52.7597 73.7243L59.1463 76.8704L65.3479 73.0765L64.4223 80.4792L69.6982 85.476Z" fill="#958AC2"/>
<path fill-rule="evenodd" clip-rule="evenodd" d="M181.418 25.8847L183.825 21.9983L182.066 17.7418L186.324 18.8522L189.749 15.8911L190.026 20.5178L193.729 22.9236L189.656 24.5892L188.638 29.1233L185.769 25.5145L181.418 25.8847Z" fill="#958AC2"/>
<path fill-rule="evenodd" clip-rule="evenodd" d="M247.784 133.038L242.23 132.853L238.898 137.572L237.325 131.927L231.956 129.984L236.677 126.746V120.823L241.12 124.432L246.488 122.674L244.545 128.226L247.784 133.038Z" fill="#958AC2"/>
<path fill-rule="evenodd" clip-rule="evenodd" d="M39.3383 190.223L32.7666 188.743L27.8609 193.647L27.1204 186.522L21.1965 183.191L27.3055 180.23L28.6014 173.29L33.1368 178.564L39.8011 177.639L36.469 183.746L39.3383 190.223Z" fill="#958AC2"/>
<path fill-rule="evenodd" clip-rule="evenodd" d="M245.84 221.222L240.842 221.499L238.343 225.941L236.492 221.129L231.678 220.019L235.473 216.688L235.103 211.506L239.268 214.282L243.804 212.246L242.601 217.243L245.84 221.222Z" fill="#F59AA8"/>
<path fill-rule="evenodd" clip-rule="evenodd" d="M85.3409 232.788L79.7872 230.845L74.9741 234.547L75.0667 228.347L70.2535 224.738L75.8997 222.887L77.6584 216.965L81.0831 221.962H87.0069L83.4897 226.866L85.3409 232.788Z" fill="#958AC2"/>
<path fill-rule="evenodd" clip-rule="evenodd" d="M72.5675 27.0881L76.5476 22.8315L75.4369 17.002L80.4351 19.6854L85.4334 16.7244L84.6003 22.6465L88.7655 26.6254L83.2119 27.6432L80.8054 33.1027L78.2137 27.8283L72.5675 27.0881Z" fill="#958AC2"/>
<path fill-rule="evenodd" clip-rule="evenodd" d="M15.9214 125.173L11.4785 125.728L9.34961 129.799L7.4984 125.543L3.14807 124.71L6.38768 121.564L5.83232 116.937L9.71985 119.25L13.6999 117.215L12.7743 121.841L15.9214 125.173Z" fill="#F59AA8"/>
<path fill-rule="evenodd" clip-rule="evenodd" d="M238.991 47.2599L241.86 43.5586L240.564 38.9319L244.822 40.6901L248.617 37.9141L248.432 42.7258L252.042 45.6868L247.599 46.9823L246.025 51.5164L243.526 47.445L238.991 47.2599Z" fill="#F59AA8"/>
<path fill-rule="evenodd" clip-rule="evenodd" d="M193.451 91.8608L196.506 87.6043L194.932 82.5149L199.745 84.2731L203.818 81.127L203.725 86.4939L207.891 89.64L202.985 91.1205L201.411 96.3024L198.542 91.8608H193.451Z" fill="#FFD628"/>
<path fill-rule="evenodd" clip-rule="evenodd" d="M232.327 183.561L223.996 183.931L219.553 191.241L216.684 183.098L208.631 180.877L215.203 175.418L214.648 166.72L221.59 171.624L229.365 168.385L227.051 176.806L232.327 183.561Z" fill="#958AC2"/>
<path fill-rule="evenodd" clip-rule="evenodd" d="M24.4363 53.6445L21.9371 53.552L20.4562 55.7728L19.7157 53.2744L17.2166 52.4416L19.3454 50.8685L19.2529 48.1851L21.2892 49.7581L23.6958 48.9253L22.9553 51.4237L24.4363 53.6445Z" fill="#FFD628"/>
<path fill-rule="evenodd" clip-rule="evenodd" d="M258.706 157.096L260.28 155.061L259.632 152.562L261.946 153.58L263.982 152.1L263.889 154.691L265.833 156.356L263.427 157.004L262.501 159.41L261.205 157.189L258.706 157.096Z" fill="#FFD628"/>
<path fill-rule="evenodd" clip-rule="evenodd" d="M146.986 28.7533L144.579 28.1981L142.728 30.1413L142.45 27.4578L140.136 26.2549L142.45 25.1445L142.821 22.4611L144.579 24.4042L147.079 24.0341L145.875 26.3474L146.986 28.7533Z" fill="#FFD628"/>
<path fill-rule="evenodd" clip-rule="evenodd" d="M91.2646 194.387L88.7655 193.925L87.0068 195.775L86.6366 193.092L84.4152 191.889L86.7292 190.778L87.0994 188.188L88.858 190.038L91.3572 189.668L90.1539 191.981L91.2646 194.387Z" fill="#FFD628"/>
<path fill-rule="evenodd" clip-rule="evenodd" d="M172.995 187.632L174.106 184.579L172.44 181.988L175.495 182.173L177.438 179.674L178.179 182.821L181.048 183.931L178.456 185.597L178.271 188.835L175.957 186.707L172.995 187.632Z" fill="#FFD628"/>
<path fill-rule="evenodd" clip-rule="evenodd" d="M200.578 49.9433L198.635 50.1283L197.616 51.8864L196.968 50.0358L195.025 49.5731L196.506 48.2777L196.32 46.3345L197.987 47.3523L199.745 46.5195L199.282 48.4627L200.578 49.9433Z" fill="#FFD628"/>
<path fill-rule="evenodd" clip-rule="evenodd" d="M45.4473 134.611L45.725 132.113L43.8738 130.54L46.1878 129.984L47.1134 127.671L48.3167 129.799L50.7232 129.984L49.1497 131.928L49.7051 134.333L47.4836 133.316L45.4473 134.611Z" fill="#FFD628"/>
<path fill-rule="evenodd" clip-rule="evenodd" d="M150.04 215.762L146.893 215.577L144.95 218.261L144.117 215.022L141.062 214.004L143.746 212.154V208.822L146.246 210.858L149.3 209.84L148.189 212.986L150.04 215.762Z" fill="#F59AA8"/>
<path d="M67.4767 48.6477C67.199 48.5551 66.8288 48.5551 66.4585 48.4626C64.7924 48.0925 63.0338 47.8149 61.6454 46.8895C59.2388 45.5016 57.6653 42.5405 57.7579 39.672C57.7579 38.6541 58.0356 37.5437 58.2207 36.5259C58.4984 35.2304 58.776 33.8424 58.6835 32.4544C58.4984 29.1232 56.5546 26.0696 52.6671 23.016C52.1117 22.6459 51.6489 22.1832 51.0935 21.8131L51.001 21.7206C48.687 20.055 46.373 18.2969 44.9846 15.7985C44.7994 15.4283 44.3366 15.3358 44.059 15.5209C43.6887 15.7059 43.5962 16.1686 43.7813 16.5387C45.3548 19.2222 47.7614 21.0729 50.1679 22.831L50.3531 22.9235C50.8159 23.2936 51.3712 23.6638 51.834 24.0339C55.3513 26.8099 57.2025 29.4934 57.2951 32.3619C57.3876 33.5648 57.11 34.8603 56.8323 36.0632C56.6472 37.1736 56.3695 38.284 56.3695 39.4869C56.2769 42.9106 58.1281 46.3343 60.9975 47.9999C62.6636 48.9253 64.5148 49.2954 66.2734 49.6655L67.199 49.8506C69.0502 50.2207 71.0865 50.8685 72.4749 52.349C73.6782 53.6445 74.2336 55.9578 73.0303 57.3458C72.7526 57.6234 72.8452 58.086 73.1229 58.3636C73.2154 58.4562 73.4006 58.5487 73.5857 58.5487C73.7708 58.5487 73.9559 58.4562 74.141 58.2711C75.8071 56.3279 75.1592 53.0893 73.4931 51.2386C71.9196 49.7581 69.6056 49.0178 67.4767 48.6477Z" fill="#958AC2"/>
<path d="M28.1386 99.7258C29.2494 100.466 30.4526 101.299 31.6559 101.947C36.0988 104.538 41.4673 105.926 46.6507 105.926C47.206 105.926 47.6688 105.926 48.2242 105.926C48.5944 105.926 48.8721 105.555 48.8721 105.185C48.8721 104.815 48.5944 104.538 48.1316 104.538C42.7631 104.815 37.0244 103.52 32.3038 100.744C31.1006 100.096 29.9898 99.2631 28.8791 98.5229C26.8428 97.1349 24.7139 95.7469 22.3073 94.8216C20.8264 94.2664 19.2528 93.9888 17.6793 93.9888C14.9025 93.9888 12.4959 95.0066 10.9224 96.8573C10.8299 97.0424 10.7373 97.2274 10.7373 97.4125C10.7373 97.5975 10.8299 97.7826 11.015 97.8751C11.2927 98.1527 11.7555 98.0602 12.0331 97.7826C13.6992 95.8394 16.0132 95.3768 17.7719 95.3768C19.1603 95.3768 20.5487 95.6544 21.9371 96.117C24.066 96.9498 26.1023 98.3378 28.1386 99.7258Z" fill="#52B1E4"/>
<path d="M69.9758 169.681H69.7907C65.6255 171.161 62.2934 175.51 60.7198 181.525C60.0719 183.838 59.7017 186.152 59.3314 188.465C58.8686 191.056 58.4058 193.739 57.6653 196.238C55.7216 202.437 51.5564 207.897 46.1879 211.228C45.8176 211.413 45.7251 211.876 45.9102 212.246C46.0027 212.431 46.2804 212.616 46.5581 212.616C46.6507 212.616 46.8358 212.616 46.9283 212.523C52.5745 209.007 56.9249 203.27 58.9612 196.793C59.7942 194.202 60.257 191.426 60.7198 188.742C61.0901 186.522 61.4603 184.208 62.1082 181.988C63.5892 176.436 66.6437 172.457 70.3461 171.161C70.7163 171.069 70.9015 170.606 70.8089 170.236C70.6238 169.866 70.3461 169.681 69.9758 169.681Z" fill="#F59AA8"/>
<path d="M246.025 147.103C244.915 146.825 243.804 146.64 242.601 146.64C238.436 146.64 234.548 148.491 231.956 149.971L231.679 150.156C230.383 150.989 228.809 151.822 227.421 151.822C227.143 151.822 226.773 151.822 226.495 151.729C225.107 151.267 224.274 149.879 223.256 148.398C222.978 147.935 222.608 147.38 222.237 146.918C220.201 144.142 216.684 142.383 212.981 142.383C210.945 142.383 209.001 142.939 207.428 143.956C207.058 144.142 206.965 144.604 207.15 144.974C207.335 145.344 207.798 145.437 208.076 145.252C209.464 144.327 211.13 143.864 212.981 143.864C216.221 143.864 219.276 145.344 221.034 147.843C221.312 148.306 221.682 148.768 221.96 149.231C222.978 150.896 224.089 152.562 225.94 153.117C226.31 153.21 226.773 153.302 227.236 153.302C228.994 153.302 230.66 152.284 232.141 151.359L232.419 151.174C234.826 149.786 238.528 148.028 242.323 148.028C243.341 148.028 244.452 148.12 245.378 148.398C249.45 149.508 253.245 153.765 252.505 158.392C252.412 158.762 252.69 159.132 253.06 159.224H253.153C253.523 159.224 253.801 158.947 253.801 158.577C255.096 153.395 250.653 148.398 246.025 147.103Z" fill="#FFD628"/>
<path d="M213.629 98.8004C209.742 101.299 204.559 104.075 199.19 104.075C198.357 104.075 197.616 103.982 196.876 103.89H196.783C196.413 103.89 196.136 104.167 196.043 104.537C196.043 104.723 196.043 104.908 196.136 105.093C196.228 105.278 196.413 105.37 196.598 105.37C197.431 105.463 198.264 105.555 199.19 105.555C204.929 105.555 210.297 102.594 214.277 100.003C215.203 99.4482 216.129 98.8004 216.962 98.2452C221.127 95.4693 225.477 92.6007 230.29 91.5829C231.679 91.3053 233.067 91.1202 234.363 90.9351C236.122 90.7501 237.88 90.565 239.639 90.0098C243.434 88.8994 246.211 86.401 247.044 83.3474C247.136 83.1624 247.044 82.9773 246.951 82.7923C246.859 82.6072 246.673 82.5147 246.488 82.4221H246.303C246.025 82.4221 245.748 82.6072 245.655 82.9773C245.007 85.5682 242.601 87.604 239.269 88.5293C237.602 88.992 235.936 89.177 234.178 89.3621C232.789 89.5472 231.401 89.7322 229.92 90.0098C224.829 91.1202 220.386 94.0813 216.129 96.8573C215.481 97.5975 214.555 98.2452 213.629 98.8004Z" fill="#52B1E4"/>
<path d="M197.894 39.3943C199.097 39.2093 200.393 38.9317 201.597 38.5615C207.52 36.9885 213.074 33.1021 216.684 27.9202C216.776 27.7352 216.869 27.5501 216.776 27.365C216.776 27.18 216.684 26.9949 216.499 26.9024C216.221 26.6248 215.758 26.7173 215.481 27.0874C212.056 31.9917 206.78 35.693 201.134 37.1735C199.93 37.4511 198.635 37.7287 197.431 37.9138C195.95 38.1914 194.469 38.469 193.081 38.8391C185.769 40.9674 179.475 47.3522 177.161 54.9399C177.068 55.1249 177.161 55.31 177.161 55.4951C177.253 55.6801 177.438 55.7727 177.531 55.8652H177.716C177.994 55.8652 178.271 55.6801 178.364 55.31C180.585 48.185 186.417 42.2628 193.266 40.2271C194.932 39.9495 196.413 39.6719 197.894 39.3943Z" fill="#958AC2"/>
<path d="M123.846 27.18C123.476 26.9024 123.013 26.6248 122.643 26.3472C121.81 25.792 120.514 24.4966 120.421 23.016C120.421 21.5355 121.532 20.4251 122.735 19.2222C123.198 18.7595 123.661 18.2969 124.031 17.8342C125.605 15.891 126.345 13.2076 126.067 10.4316C125.79 7.65558 124.494 5.15719 122.55 3.67667C122.272 3.39907 121.81 3.4916 121.532 3.86173C121.439 4.0468 121.347 4.23186 121.439 4.41693C121.439 4.602 121.532 4.78706 121.717 4.87959C123.383 6.17506 124.401 8.30331 124.679 10.6166C124.957 13.0225 124.309 15.2433 122.92 16.9089C122.55 17.3715 122.087 17.8342 121.717 18.2043C120.421 19.4998 118.94 20.9803 118.94 23.1086C118.94 25.3294 120.699 26.9024 121.717 27.6427C122.18 27.9203 122.55 28.1979 123.013 28.4755C123.938 29.0307 124.771 29.5859 125.419 30.3262C126.993 32.0843 127.456 35.1379 126.438 38.0989C125.512 40.8749 123.661 43.1882 121.81 45.409C121.532 45.6866 121.624 46.1493 121.902 46.4269C121.995 46.5194 122.18 46.6119 122.365 46.6119C122.55 46.6119 122.735 46.5194 122.92 46.3344C124.679 44.1136 126.715 41.6152 127.733 38.5616C128.844 35.1379 128.381 31.5291 126.438 29.3083C125.79 28.383 124.864 27.7352 123.846 27.18Z" fill="#FFD628"/>
<path d="M51.9265 143.401C52.2042 143.124 52.1117 142.661 51.834 142.383C51.5563 142.106 51.0935 142.198 50.8158 142.476C48.7795 144.974 45.3548 145.437 43.5036 145.437H43.2259C41.5598 145.437 39.8011 145.159 38.1351 144.974C37.1169 144.789 36.0062 144.697 34.988 144.604C34.3401 144.512 33.7847 144.512 33.1368 144.512C31.1005 144.512 28.2311 144.882 25.8245 146.362C23.1403 148.12 21.104 149.694 18.8825 154.69C18.79 154.875 18.79 155.06 18.8825 155.245C18.9751 155.431 19.0677 155.616 19.2528 155.616C19.3453 155.708 19.4379 155.708 19.5305 155.708C19.8081 155.708 20.0858 155.523 20.1784 155.245C22.2147 150.619 24.1585 149.138 26.565 147.565C28.5088 146.27 31.5633 145.715 34.8029 145.992C35.8211 146.085 36.9318 146.27 37.9499 146.362C39.616 146.64 41.4672 146.825 43.3184 146.825H43.5036C45.725 146.918 49.52 146.362 51.9265 143.401Z" fill="#FFD628"/>
<path d="M100.243 46.6119C99.0398 45.6866 97.9291 44.8538 97.0961 43.6509C95.43 41.06 95.9853 37.1736 98.2994 35.3229C98.577 35.0453 98.6696 34.5827 98.3919 34.3051C98.2068 34.0275 97.744 33.9349 97.3738 34.2125C94.5044 36.6184 93.7639 41.4301 95.8928 44.5762C96.8184 45.9642 98.1142 46.8895 99.4101 47.8149C100.428 48.5551 101.446 49.2954 102.187 50.3133C104.779 53.4594 104.408 58.3636 103.853 62.7127C103.853 62.8977 103.853 63.0828 103.946 63.2679C104.038 63.4529 104.223 63.5455 104.408 63.5455H104.501C104.871 63.5455 105.149 63.2679 105.149 62.8977C105.704 58.2711 106.167 52.9967 103.205 49.3879C102.372 48.185 101.261 47.3522 100.243 46.6119Z" fill="#52B1E4"/>
<path d="M156.427 69.0049C156.52 68.8198 156.52 68.6348 156.427 68.4497C154.761 64.1932 155.316 59.0113 157.908 55.31C158.463 54.4772 159.204 53.737 159.852 52.9042C160.5 52.2564 161.055 51.5162 161.61 50.7759C163.184 48.7402 163.832 46.6119 163.647 44.7613C163.647 44.3911 163.277 44.1135 162.906 44.1135C162.721 44.1135 162.536 44.2061 162.444 44.3911C162.351 44.5762 162.258 44.7613 162.258 44.9463C162.444 46.8895 161.425 48.7402 160.5 49.9431C159.944 50.6834 159.389 51.3311 158.741 51.9788C158.001 52.8116 157.353 53.5519 156.705 54.4772C153.835 58.5487 153.188 64.2857 155.039 69.0049C155.131 69.2825 155.409 69.4676 155.687 69.4676C155.779 69.4676 155.872 69.4676 155.964 69.375C156.242 69.2825 156.335 69.19 156.427 69.0049Z" fill="#F59AA8"/>
<path d="M119.588 207.342H119.403C119.218 207.434 119.033 207.527 118.94 207.712C118.848 207.897 118.848 208.082 118.848 208.267C120.051 213.171 118.385 218.26 116.626 223.165L116.534 223.35C114.868 228.347 113.202 234.176 115.053 239.358C115.145 239.636 115.423 239.821 115.701 239.821C115.793 239.821 115.886 239.821 115.978 239.728C116.349 239.543 116.534 239.173 116.349 238.803C114.59 234.084 116.163 228.532 117.83 223.812L117.922 223.627C119.681 218.446 121.439 213.171 120.144 207.897C120.144 207.527 119.866 207.342 119.588 207.342Z" fill="#52B1E4"/>
<path d="M161.796 200.309C160.037 196.7 158.186 192.999 157.353 189.02C157.26 188.65 156.983 188.465 156.705 188.465H156.52C156.335 188.465 156.149 188.65 156.057 188.743C155.964 188.928 155.964 189.113 155.964 189.298C156.797 193.462 158.741 197.256 160.5 200.864L160.592 200.957C161.148 201.975 161.611 203.085 162.166 204.196C163.925 207.989 166.239 213.726 165.128 219.278C164.758 221.037 164.11 222.795 163.462 224.553C162.999 225.756 162.536 226.959 162.166 228.162C161.518 230.475 160.685 234.824 163.091 237.97C163.184 238.155 163.462 238.248 163.647 238.248C163.832 238.248 163.925 238.155 164.11 238.063C164.387 237.785 164.48 237.322 164.202 237.045C162.721 235.102 162.536 232.048 163.554 228.624C163.925 227.421 164.387 226.311 164.85 225.108C165.498 223.35 166.239 221.499 166.609 219.556C167.72 213.634 165.405 207.619 163.462 203.548C162.906 202.53 162.351 201.42 161.796 200.309Z" fill="#F59AA8"/>
<path d="M196.691 205.121L196.413 204.381C194.562 198.644 192.618 192.721 188.453 188.557C188.175 188.28 187.712 188.28 187.435 188.557C187.342 188.743 187.25 188.928 187.25 189.113C187.25 189.298 187.342 189.483 187.435 189.668C191.415 193.554 193.266 199.291 195.025 204.843L195.302 205.584C197.154 211.321 199.56 217.798 204.651 221.499C204.744 221.592 204.929 221.592 205.021 221.592C205.206 221.592 205.484 221.499 205.577 221.314C205.762 220.944 205.762 220.481 205.391 220.296C200.763 216.873 198.449 210.673 196.691 205.121Z" fill="#52B1E4"/>
<path d="M42.4855 62.9904C41.6524 62.5277 40.7268 62.8053 40.264 63.5455C39.9864 64.1007 39.9864 64.6559 40.264 65.3037C40.3566 65.5813 40.5417 65.7663 40.8194 65.8589C41.0971 66.0439 41.3748 66.0439 41.6524 66.0439C42.2078 66.0439 42.7632 65.7663 43.0408 65.2111C43.3185 64.6559 43.3185 64.1007 43.0408 63.453C42.9483 63.3605 42.6706 63.0829 42.4855 62.9904Z" fill="#111A2C"/>
<path d="M110.425 11.0795C109.314 10.4317 107.925 10.8019 107.37 11.9123C107 12.6525 107 13.4853 107.37 14.3181C107.555 14.5957 107.74 14.8733 108.018 15.0584C108.388 15.2434 108.758 15.4285 109.221 15.4285C109.962 15.4285 110.702 14.9658 111.073 14.3181C111.443 13.5779 111.443 12.7451 111.073 11.9123C110.887 11.4496 110.702 11.172 110.425 11.0795Z" fill="#111A2C"/>
<path d="M149.763 39.2093C148.93 38.7467 147.819 39.0243 147.356 39.8571C146.986 40.4123 146.986 41.1525 147.356 41.7077C147.449 41.9853 147.726 42.1704 147.912 42.3554C148.189 42.5405 148.467 42.633 148.837 42.633C149.485 42.633 150.04 42.2629 150.318 41.7077C150.688 41.1525 150.688 40.4123 150.318 39.8571C150.226 39.5795 150.04 39.3944 149.763 39.2093Z" fill="#111A2C"/>
<path d="M225.384 55.2175C224.274 54.6623 222.885 55.125 222.237 56.1428C221.775 56.8831 221.682 57.8084 222.052 58.6412C222.237 59.1964 222.7 59.6591 223.163 59.8441C223.533 60.0292 223.903 60.1217 224.274 60.1217C225.107 60.1217 225.847 59.6591 226.31 58.9188C226.773 58.1785 226.865 57.2532 226.495 56.4204C226.31 55.8652 225.94 55.4026 225.384 55.2175Z" fill="#111A2C"/>
<path d="M192.248 63.823C191.507 63.4529 190.674 63.6379 190.304 64.3782C190.026 64.8409 190.026 65.3961 190.304 65.9513C190.397 66.2289 190.582 66.4139 190.859 66.5065C191.137 66.599 191.322 66.6915 191.6 66.6915C192.155 66.6915 192.618 66.4139 192.803 65.9513C193.081 65.4886 193.081 64.9334 192.803 64.3782C192.711 64.1931 192.526 64.0081 192.248 63.823Z" fill="#111A2C"/>
<path d="M248.71 104.538C247.599 104.075 246.396 104.445 245.748 105.37C245.285 106.111 245.285 106.944 245.563 107.776C245.748 108.332 246.21 108.702 246.673 108.887C247.044 109.072 247.321 109.072 247.691 109.072C248.432 109.072 249.172 108.702 249.635 107.961C250.098 107.221 250.098 106.388 249.82 105.556C249.543 105.185 249.172 104.723 248.71 104.538Z" fill="#111A2C"/>
<path d="M258.522 135.999C257.966 135.721 257.318 135.906 256.948 136.461C256.762 136.832 256.67 137.294 256.948 137.664C257.04 137.849 257.225 138.034 257.41 138.127C257.596 138.22 257.781 138.22 257.966 138.22C258.336 138.22 258.707 138.034 258.985 137.664C259.17 137.294 259.262 136.832 258.985 136.461C258.892 136.276 258.707 136.091 258.522 135.999Z" fill="#111A2C"/>
<path d="M219.183 137.202C219.09 136.924 218.905 136.739 218.628 136.646C217.887 136.276 217.054 136.461 216.684 137.202C216.406 137.664 216.406 138.219 216.684 138.775C216.776 139.052 216.962 139.237 217.239 139.33C217.517 139.422 217.702 139.515 217.98 139.515C218.443 139.515 218.998 139.237 219.183 138.775C219.461 138.312 219.461 137.757 219.183 137.202Z" fill="#111A2C"/>
<path d="M204.743 158.114C203.91 157.651 202.8 157.929 202.337 158.762C201.967 159.317 201.967 160.057 202.337 160.613C202.429 160.89 202.707 161.075 202.892 161.26C203.17 161.445 203.447 161.538 203.818 161.538C204.466 161.538 205.021 161.168 205.299 160.613C205.669 160.057 205.669 159.317 205.299 158.762C205.206 158.484 205.021 158.207 204.743 158.114Z" fill="#111A2C"/>
<path d="M209.464 193.647C208.353 192.999 206.965 193.369 206.41 194.48C206.039 195.22 206.039 196.053 206.41 196.885C206.595 197.163 206.78 197.441 207.057 197.626C207.428 197.811 207.798 197.996 208.261 197.996C209.001 197.996 209.742 197.533 210.112 196.885C210.482 196.145 210.482 195.312 210.112 194.48C210.019 194.109 209.742 193.832 209.464 193.647Z" fill="#111A2C"/>
<path d="M248.71 188.742C247.969 188.372 247.136 188.557 246.766 189.298C246.488 189.76 246.488 190.315 246.766 190.871C246.858 191.148 247.044 191.333 247.321 191.426C247.599 191.518 247.784 191.611 248.062 191.611C248.617 191.611 249.08 191.333 249.265 190.871C249.543 190.408 249.543 189.853 249.265 189.298C249.08 189.02 248.895 188.835 248.71 188.742Z" fill="#111A2C"/>
<path d="M221.682 215.485C220.849 215.114 219.831 215.392 219.368 216.225C218.998 216.78 218.905 217.428 219.183 218.076C219.368 218.538 219.738 218.908 220.201 219.093C220.479 219.186 220.664 219.278 220.942 219.278C221.59 219.278 222.145 218.908 222.515 218.446C222.885 217.89 222.978 217.243 222.7 216.595C222.423 216.04 222.145 215.67 221.682 215.485Z" fill="#111A2C"/>
<path d="M182.992 222.147C182.159 221.684 181.048 221.962 180.585 222.795C180.215 223.35 180.215 224.09 180.585 224.645C180.678 224.923 180.956 225.108 181.141 225.293C181.418 225.478 181.789 225.571 182.066 225.571C182.714 225.571 183.27 225.2 183.547 224.645C183.917 224.09 183.917 223.35 183.547 222.795C183.455 222.517 183.27 222.332 182.992 222.147Z" fill="#111A2C"/>
<path d="M185.398 190.871C184.658 190.501 183.825 190.686 183.455 191.426C183.177 191.889 183.177 192.444 183.455 192.999C183.547 193.277 183.732 193.462 184.01 193.554C184.288 193.647 184.473 193.739 184.75 193.739C185.213 193.739 185.769 193.462 185.954 192.999C186.231 192.536 186.231 191.981 185.954 191.426C185.861 191.148 185.676 190.963 185.398 190.871Z" fill="#111A2C"/>
<path d="M130.047 209.84C129.214 209.377 128.104 209.655 127.641 210.488C127.271 211.043 127.271 211.783 127.641 212.338C127.733 212.616 128.011 212.801 128.196 212.986C128.474 213.171 128.752 213.264 129.122 213.264C129.77 213.264 130.325 212.894 130.603 212.338C130.973 211.783 130.973 211.043 130.603 210.488C130.51 210.21 130.325 210.025 130.047 209.84Z" fill="#111A2C"/>
<path d="M148.838 232.326C148.19 231.955 147.449 232.233 147.079 232.788C146.801 233.158 146.801 233.714 147.079 234.176C147.171 234.361 147.356 234.546 147.542 234.731C147.727 234.824 148.004 234.916 148.19 234.916C148.653 234.916 149.023 234.639 149.301 234.269C149.579 233.899 149.579 233.343 149.301 232.881C149.208 232.603 149.023 232.418 148.838 232.326Z" fill="#111A2C"/>
<path d="M71.7344 194.109C70.9939 193.739 70.1609 193.924 69.7907 194.665C69.513 195.127 69.513 195.682 69.7907 196.238C69.8832 196.515 70.0683 196.7 70.346 196.793C70.6237 196.885 70.8088 196.978 71.0865 196.978C71.6419 196.978 72.1047 196.7 72.2898 196.238C72.5675 195.775 72.5675 195.22 72.2898 194.665C72.1047 194.48 71.9195 194.294 71.7344 194.109Z" fill="#111A2C"/>
<path d="M105.611 233.343C104.593 232.696 103.297 233.066 102.742 234.084C102.372 234.731 102.372 235.564 102.742 236.304C102.927 236.582 103.112 236.767 103.39 236.952C103.76 237.137 104.13 237.23 104.501 237.23C105.241 237.23 105.889 236.86 106.259 236.212C106.63 235.564 106.63 234.731 106.259 233.991C106.074 233.713 105.889 233.528 105.611 233.343Z" fill="#111A2C"/>
<path d="M104.778 188.372C104.316 188.557 103.945 188.928 103.76 189.39C103.483 190.038 103.575 190.686 103.945 191.241C104.316 191.796 104.871 192.074 105.519 192.074C105.797 192.074 105.982 191.981 106.259 191.889C106.722 191.704 107.093 191.333 107.278 190.871C107.555 190.223 107.463 189.575 107.093 189.02C106.537 188.372 105.612 188.002 104.778 188.372Z" fill="#111A2C"/>
<path d="M41.5598 200.494C40.449 199.939 39.0606 200.402 38.4127 201.419C37.9499 202.16 37.8574 203.085 38.2276 203.918C38.4127 204.473 38.8755 204.936 39.3383 205.121C39.7086 205.306 40.0788 205.398 40.449 205.398C41.2821 205.398 42.0226 204.936 42.4854 204.195C42.9482 203.455 43.0407 202.53 42.6705 201.697C42.4854 201.142 42.1151 200.772 41.5598 200.494Z" fill="#111A2C"/>
<path d="M37.0243 156.264C36.1913 155.801 35.2657 156.078 34.8029 156.819C34.5252 157.374 34.5252 157.929 34.8029 158.577C34.8954 158.854 35.0805 159.04 35.3582 159.132C35.6359 159.317 35.9136 159.317 36.1913 159.317C36.7466 159.317 37.302 159.04 37.5797 158.484C37.8574 157.929 37.8574 157.374 37.5797 156.726C37.4871 156.634 37.302 156.356 37.0243 156.264Z" fill="#111A2C"/>
<path d="M53.1298 167.09C52.3893 166.72 51.5563 166.905 51.186 167.645C50.9084 168.108 50.9084 168.663 51.186 169.218C51.2786 169.496 51.4637 169.681 51.7414 169.773C52.0191 169.866 52.2042 169.958 52.4819 169.958C53.0373 169.958 53.5001 169.681 53.6852 169.218C53.9629 168.755 53.9629 168.2 53.6852 167.645C53.5001 167.367 53.3149 167.182 53.1298 167.09Z" fill="#111A2C"/>
<path d="M26.0097 134.703C24.9916 134.056 23.6957 134.426 23.1404 135.444C22.7701 136.091 22.7701 136.924 23.1404 137.664C23.3255 137.942 23.5106 138.127 23.7883 138.312C24.1585 138.497 24.5288 138.59 24.899 138.59C25.6395 138.59 26.2874 138.22 26.6576 137.572C27.0279 136.924 27.0279 136.091 26.6576 135.351C26.4725 135.073 26.2874 134.796 26.0097 134.703Z" fill="#111A2C"/>
<path d="M23.6035 107.314C24.0665 107.314 24.4368 107.036 24.7146 106.666C24.9924 106.296 24.9924 105.741 24.7146 105.278C24.622 105.093 24.4368 104.908 24.2517 104.723C23.6035 104.353 22.8628 104.63 22.4924 105.185C22.2146 105.556 22.2146 106.111 22.4924 106.573C22.585 106.758 22.7702 107.036 22.9554 107.129C23.1405 107.314 23.4183 107.314 23.6035 107.314Z" fill="#111A2C"/>
<path d="M47.0208 121.379C46.1878 120.916 45.077 121.193 44.6142 122.026C44.244 122.581 44.244 123.322 44.6142 123.877C44.7068 124.155 44.9845 124.34 45.1696 124.525C45.4473 124.71 45.7249 124.802 46.0952 124.802C46.7431 124.802 47.2985 124.432 47.5762 123.877C47.9464 123.322 47.9464 122.581 47.5762 122.026C47.4836 121.749 47.2059 121.564 47.0208 121.379Z" fill="#111A2C"/>
<path d="M23.9733 84.828C24.4361 84.0877 24.4361 83.2549 24.1585 82.4221C23.9733 81.8669 23.5105 81.4968 23.0477 81.3117C21.937 80.8491 20.7337 81.2192 20.0858 82.1445C19.623 82.8848 19.623 83.7176 19.9007 84.5504C20.0858 85.1056 20.5486 85.4757 21.0114 85.6608C21.3817 85.8458 21.6593 85.8458 22.0296 85.8458C22.7701 85.9384 23.5105 85.5682 23.9733 84.828Z" fill="#111A2C"/>
<path d="M66.2734 57.5308C65.5329 57.1606 64.6998 57.3457 64.3296 58.086C64.0519 58.5486 64.0519 59.1038 64.3296 59.659C64.4222 59.9366 64.6073 60.1217 64.885 60.2142C65.1626 60.3068 65.3478 60.3993 65.6254 60.3993C66.0882 60.3993 66.6436 60.1217 66.8287 59.659C67.1064 59.1964 67.1064 58.6412 66.8287 58.086C66.7362 57.9009 66.551 57.6233 66.2734 57.5308Z" fill="#111A2C"/>
<path d="M133.009 58.7338C132.176 58.2711 131.251 58.5487 130.788 59.289C130.51 59.8442 130.51 60.3994 130.788 61.0471C130.88 61.3247 131.066 61.5097 131.343 61.6023C131.621 61.7873 131.899 61.7873 132.176 61.7873C132.732 61.7873 133.287 61.5098 133.565 60.9546C133.842 60.3994 133.842 59.8442 133.565 59.1964C133.38 59.1039 133.194 58.9188 133.009 58.7338Z" fill="#111A2C"/>
<path d="M74.8815 37.7288C74.141 37.3586 73.308 37.5437 72.9378 38.284C72.6601 38.7466 72.6601 39.3018 72.9378 39.857C73.0303 40.1346 73.2154 40.3197 73.4931 40.4122C73.7708 40.5048 73.9559 40.5973 74.2336 40.5973C74.6964 40.5973 75.2518 40.3197 75.4369 39.857C75.7146 39.3944 75.7146 38.8392 75.4369 38.284C75.2518 38.0064 75.0666 37.8213 74.8815 37.7288Z" fill="#111A2C"/>
<path d="M13.4215 198.921C12.4959 198.551 11.4777 198.829 11.0149 199.661C10.6447 200.217 10.5521 200.957 10.8298 201.697C11.0149 202.16 11.3852 202.622 11.848 202.808C12.1256 202.9 12.4033 202.993 12.681 202.993C13.3289 202.993 13.9768 202.622 14.3471 202.067C14.7173 201.512 14.8099 200.772 14.5322 200.032C14.2545 199.476 13.8843 199.106 13.4215 198.921Z" fill="#111A2C"/>
<path d="M3.79524 168.941C2.86964 168.385 1.85147 168.756 1.29611 169.588C0.925872 170.144 0.925872 170.884 1.29611 171.532C1.38867 171.809 1.66635 171.994 1.85147 172.179C2.12916 172.364 2.4994 172.457 2.77708 172.457C3.425 172.457 3.98036 172.087 4.3506 171.532C4.72084 170.976 4.72084 170.236 4.3506 169.588C4.25804 169.311 4.07292 169.033 3.79524 168.941Z" fill="#111A2C"/>
<path d="M36.469 26.4398C36.8392 25.6996 36.8392 24.8668 36.469 24.034C36.2839 23.7564 36.0987 23.4788 35.8211 23.2937C34.7103 22.646 33.3219 23.0161 32.7666 24.1265C32.3963 24.8668 32.3963 25.6996 32.7666 26.5324C32.9517 26.81 33.1368 27.0876 33.4145 27.2726C33.7847 27.4577 34.155 27.6427 34.6178 27.6427C35.3583 27.5502 36.0987 27.1801 36.469 26.4398Z" fill="#111A2C"/>
<path d="M143.931 6.45268C144.302 6.63774 144.764 6.73027 145.135 6.73027C146.06 6.73027 146.893 6.26761 147.449 5.43481C148.004 4.60202 148.004 3.58416 147.634 2.56629C147.356 2.0111 146.893 1.4559 146.338 1.1783C145.042 0.623101 143.561 0.993233 142.821 2.19616C142.265 3.02896 142.265 4.04682 142.636 5.06468C142.913 5.71241 143.376 6.17508 143.931 6.45268Z" fill="#111A2C"/>
<path d="M261.761 68.4498C261.668 68.1722 261.39 67.9872 261.205 67.8021C260.28 67.3394 259.262 67.617 258.706 68.4498C258.336 69.005 258.336 69.7453 258.706 70.393C258.799 70.6706 259.076 70.8557 259.262 71.0408C259.539 71.2258 259.909 71.3184 260.187 71.3184C260.835 71.3184 261.39 70.9482 261.761 70.393C262.131 69.8378 262.131 69.0976 261.761 68.4498Z" fill="#111A2C"/>
<path d="M241.86 162.556C240.935 162.093 239.917 162.371 239.361 163.203C238.991 163.759 238.991 164.499 239.361 165.147C239.454 165.424 239.731 165.609 239.917 165.794C240.194 165.979 240.564 166.072 240.842 166.072C241.49 166.072 242.045 165.702 242.416 165.147C242.786 164.591 242.786 163.851 242.416 163.203C242.323 162.833 242.138 162.648 241.86 162.556Z" fill="#111A2C"/>
<path d="M182.899 245.558C181.974 245.002 180.955 245.373 180.4 246.205C180.03 246.761 180.03 247.501 180.4 248.149C180.493 248.426 180.77 248.611 180.955 248.796C181.233 248.981 181.603 249.074 181.881 249.074C182.529 249.074 183.084 248.704 183.455 248.149C183.825 247.593 183.825 246.853 183.455 246.205C183.362 245.928 183.177 245.743 182.899 245.558Z" fill="#111A2C"/>
<path d="M146.616 242.782C145.69 242.226 144.672 242.597 144.117 243.429C143.746 243.985 143.746 244.725 144.117 245.373C144.209 245.65 144.487 245.835 144.672 246.02C144.95 246.205 145.32 246.298 145.598 246.298C146.245 246.298 146.801 245.928 147.171 245.373C147.541 244.817 147.541 244.077 147.171 243.429C147.079 243.152 146.893 242.874 146.616 242.782Z" fill="#111A2C"/>
<path d="M128.611 76.2961C101.852 76.2961 80.0925 97.9628 80.0925 124.815C80.0925 151.667 101.759 173.333 128.611 173.333C155.463 173.333 177.13 151.667 177.13 124.815C177.13 97.9628 155.463 76.2961 128.611 76.2961ZM120.429 147.441C120.039 147.831 119.406 147.831 119.015 147.441L103.055 131.481C101.163 129.589 101.163 126.522 103.055 124.629C104.948 122.737 108.015 122.737 109.907 124.629L119.092 133.814C119.44 134.162 120.004 134.162 120.353 133.814L145.926 108.241C147.818 106.348 150.886 106.348 152.778 108.241C154.67 110.133 154.67 113.2 152.778 115.092L120.429 147.441Z" fill="#27AE60"/>
</g>
<defs>
<clipPath id="clip0_597_6317">
<rect width="264.815" height="250" fill="white" transform="translate(0.0925293)"/>
</clipPath>
</defs>
</svg>
