<svg width="90" height="90" viewBox="0 0 90 90" fill="none" xmlns="http://www.w3.org/2000/svg">
<path d="M67.5 0H22.5C10.08 0 0 10.08 0 22.5V67.5C0 79.92 10.08 90 22.5 90H67.5C79.92 90 90 79.92 90 67.5V22.5C90 10.08 79.92 0 67.5 0Z" fill="#292929"/>
<path d="M70.2621 56.3741H67.0589V52.3681C67.0589 49.6855 64.9802 47.5037 62.4244 47.5037H32.5731C31.619 47.5037 30.8693 48.2906 30.8693 49.2921C30.8693 50.2936 31.619 51.0805 32.5731 51.0805H62.4244C63.1059 51.0805 63.6512 51.6528 63.6512 52.3681V56.3383H25.5192C25.5192 56.3383 25.4511 55.2295 25.4511 54.693C25.4511 42.6393 34.311 32.8033 45.2156 32.8033C51.2813 32.8033 56.938 35.8435 60.7206 41.1013C61.2999 41.8882 62.3563 42.0671 63.1059 41.459C63.8556 40.851 64.026 39.7422 63.4467 38.9553C59.2553 33.1252 53.1214 29.6557 46.4424 29.2623V25.9001C47.0217 25.3994 47.3965 24.6483 47.3965 23.7899C47.3965 22.2519 46.2038 21 44.7385 21C43.2732 21 42.0805 22.2519 42.0805 23.7899C42.0805 24.6483 42.4554 25.3994 43.0347 25.9001V29.1192H18.7038C17.7497 29.1192 17 29.9061 17 30.9076C17 31.9091 17.7497 32.696 18.7038 32.696H33.6295C31.3804 34.1267 29.3699 35.9508 27.7001 38.0969H19.3172C18.3631 38.0969 17.6134 38.8838 17.6134 39.8852C17.6134 40.8867 18.3631 41.6736 19.3172 41.6736H25.3147C24.3606 43.4262 23.5768 45.3219 23.0316 47.3249H19.5558C18.6357 47.3249 17.9201 48.1118 17.9201 49.1133C17.9201 50.1147 18.6698 50.9016 19.5558 50.9016H22.316C22.1456 52.1535 22.1115 56.3741 22.1115 56.3741H19.0446C18.0905 56.3741 17.3408 57.1609 17.3408 58.1624C17.3408 59.1639 18.0905 59.9508 19.0446 59.9508H23.9857H26.9504C26.5415 60.7735 26.3371 61.7392 26.3371 62.7049C26.3371 66.1744 29.0291 69 32.3346 69C35.64 69 38.3321 66.1744 38.3321 62.7049C38.3321 61.7034 38.0936 60.7735 37.7187 59.9508H51.8265C51.4176 60.7735 51.2131 61.7392 51.2131 62.7049C51.2131 66.1744 53.9052 69 57.2107 69C60.5161 69 63.2082 66.1744 63.2082 62.7049C63.2082 61.7034 62.9696 60.7735 62.5948 59.9508H70.2962C71.2503 59.9508 72 59.1639 72 58.1624C72 57.1609 71.1822 56.3741 70.2621 56.3741ZM32.3346 65.4232C30.9033 65.4232 29.7447 64.2071 29.7447 62.7049C29.7447 61.2027 30.9033 59.9866 32.3346 59.9866C33.7658 59.9866 34.9244 61.2027 34.9244 62.7049C34.9244 64.2071 33.7658 65.4232 32.3346 65.4232ZM57.1766 65.4232C55.7454 65.4232 54.5867 64.2071 54.5867 62.7049C54.5867 61.2027 55.7454 59.9866 57.1766 59.9866C58.6078 59.9866 59.7664 61.2027 59.7664 62.7049C59.7664 64.2071 58.6078 65.4232 57.1766 65.4232Z" fill="white"/>
</svg>
